<svg width="24" height="24" viewBox="0 0 24 24" fill="none" xmlns="http://www.w3.org/2000/svg">
<path fill-rule="evenodd" clip-rule="evenodd" d="M12 3.39998C10.2879 3.39998 8.89998 4.78789 8.89998 6.49998C8.89998 8.21206 10.2879 9.59998 12 9.59998C13.7121 9.59998 15.1 8.21206 15.1 6.49998C15.1 4.78789 13.7121 3.39998 12 3.39998ZM7.09998 6.49998C7.09998 3.79378 9.29378 1.59998 12 1.59998C14.7062 1.59998 16.9 3.79378 16.9 6.49998C16.9 9.20617 14.7062 11.4 12 11.4C9.29378 11.4 7.09998 9.20617 7.09998 6.49998ZM5.99998 13.1C6.49703 13.1 6.89998 13.5029 6.89998 14V17.1H9.99998C10.497 17.1 10.9 17.5029 10.9 18C10.9 18.497 10.497 18.9 9.99998 18.9H6.89998V22C6.89998 22.497 6.49703 22.9 5.99998 22.9C5.50292 22.9 5.09998 22.497 5.09998 22V18.9H1.99998C1.50292 18.9 1.09998 18.497 1.09998 18C1.09998 17.5029 1.50292 17.1 1.99998 17.1H5.09998V14C5.09998 13.5029 5.50292 13.1 5.99998 13.1ZM9.75357 15.2182C10.4239 15.0214 11.1719 14.9 12 14.9C14.2292 14.9 15.6333 15.781 16.4886 16.6364C16.9232 17.071 17.2218 17.5057 17.4101 17.8285C17.5039 17.9893 17.5692 18.1204 17.6095 18.2071C17.6296 18.2504 17.6433 18.2824 17.6512 18.3012L17.6584 18.3189L17.6586 18.3193L17.6589 18.3201C17.8349 18.7828 18.352 19.0167 18.816 18.8427C19.2814 18.6681 19.5173 18.1494 19.3427 17.684L18.5 18C19.3427 17.684 19.3425 17.6835 19.3424 17.683L19.342 17.682L19.3411 17.6796L19.3388 17.6738L19.3326 17.6577C19.3276 17.6452 19.321 17.6288 19.3127 17.6089C19.2962 17.5691 19.2728 17.5152 19.2421 17.4491C19.1808 17.3171 19.0899 17.1357 18.9649 16.9215C18.7157 16.4943 18.3268 15.929 17.7614 15.3636C16.6168 14.219 14.7709 13.1 12 13.1C10.9931 13.1 10.0745 13.248 9.24648 13.4911C8.76956 13.6311 8.49645 14.1312 8.63648 14.6082C8.77651 15.0851 9.27664 15.3582 9.75357 15.2182Z" fill="#252525"/>
</svg>
