<svg width="20" height="22" viewBox="0 0 20 22" fill="none" xmlns="http://www.w3.org/2000/svg">
<path d="M17.676 3.74621C19.8228 6.01426 20.3266 9.50684 18.6854 12.3496L15.6446 17.6164L16.5411 18.134C17.0362 18.4198 17.2058 19.0529 16.92 19.548C16.6341 20.0431 16.001 20.2128 15.5059 19.9269L1.16229 11.6456C0.667177 11.3598 0.49754 10.7267 0.783392 10.2316C1.06924 9.73645 1.70234 9.56682 2.19745 9.85267L3.09393 10.3702L6.13471 5.10345C7.77597 2.26071 11.0526 0.950772 14.0901 1.67589L14.2402 1.41602C14.8119 0.4258 16.0781 0.0865252 17.0683 0.658229C18.0585 1.22993 18.3978 2.49612 17.8261 3.48634L17.676 3.74621ZM16.8924 11.3144C18.3217 8.83887 17.4735 5.6734 14.998 4.24414C12.5224 2.81488 9.35693 3.66306 7.92767 6.13861L4.88688 11.4054L13.8516 16.5812L16.8924 11.3144ZM4.28725 15.1949C4.76106 15.2737 5.08192 15.7202 5.0065 16.1937L5.00568 16.1996C5.00456 16.2081 5.0025 16.2247 5.0002 16.2485C4.99558 16.2963 4.99007 16.3724 4.98898 16.4702C4.98677 16.6675 5.00262 16.9429 5.07401 17.2484C5.2136 17.8458 5.5607 18.5554 6.44169 19.064C7.32268 19.5726 8.11073 19.5185 8.69788 19.3407C8.99814 19.2497 9.2446 19.1258 9.41438 19.0252C9.49854 18.9753 9.56167 18.9325 9.60076 18.9046C9.62024 18.8907 9.63355 18.8806 9.6403 18.8755L9.64503 18.8718C10.0175 18.5697 10.5645 18.6243 10.8696 18.9953C11.1761 19.3678 11.1226 19.9182 10.75 20.2247L10.1951 19.5502C10.7501 20.2247 10.7497 20.2249 10.7494 20.2252L10.7487 20.2258L10.7471 20.2271L10.7434 20.2301L10.7337 20.2378L10.7057 20.2598C10.6832 20.2771 10.6531 20.2997 10.6156 20.3264C10.5408 20.3798 10.4361 20.4503 10.3047 20.5281C10.0434 20.6829 9.66778 20.8721 9.20416 21.0125C8.26352 21.2974 6.95649 21.3783 5.56827 20.5768C4.18006 19.7753 3.59663 18.6029 3.373 17.6459C3.26277 17.1742 3.23885 16.7543 3.24225 16.4506C3.24396 16.2979 3.25262 16.172 3.26146 16.0805C3.26588 16.0347 3.27038 15.9972 3.27412 15.9691L3.27909 15.9339L3.28097 15.9217L3.28173 15.917L3.28206 15.915L3.28221 15.914C3.28228 15.9136 3.28235 15.9132 4.14393 16.0565L3.28235 15.9132C3.3615 15.4374 3.81141 15.1158 4.28725 15.1949Z" fill="#09264B"/>
</svg>
