<svg width="24" height="24" viewBox="0 0 24 24" fill="none" xmlns="http://www.w3.org/2000/svg">
<path fill-rule="evenodd" clip-rule="evenodd" d="M3.74943 2.09839C3.31182 2.09839 2.89214 2.27223 2.5827 2.58166C2.27326 2.8911 2.09943 3.31078 2.09943 3.74839V19.3484H1.49998C1.00292 19.3484 0.599976 19.7513 0.599976 20.2484C0.599976 20.7454 1.00292 21.1484 1.49998 21.1484H2.99943H13.4994H20.9962L20.9994 21.1484L21.0027 21.1484H22.5C22.997 21.1484 23.4 20.7454 23.4 20.2484C23.4 19.7513 22.997 19.3484 22.5 19.3484H21.8994V9.74839C21.8994 9.31078 21.7256 8.8911 21.4162 8.58166C21.1067 8.27223 20.687 8.09839 20.2494 8.09839H14.3994V3.74839C14.3994 3.31078 14.2256 2.8911 13.9162 2.58166C13.6067 2.27223 13.187 2.09839 12.7494 2.09839H3.74943ZM20.0994 9.89839V19.3484H14.3994V9.89839H20.0994ZM12.5994 3.89839V8.99839V19.3484H3.89943V3.89839H12.5994ZM5.99943 5.84839C5.50237 5.84839 5.09943 6.25133 5.09943 6.74839C5.09943 7.24544 5.50237 7.64839 5.99943 7.64839H8.99943C9.49648 7.64839 9.89943 7.24544 9.89943 6.74839C9.89943 6.25133 9.49648 5.84839 8.99943 5.84839H5.99943ZM6.59943 12.7484C6.59943 12.2513 7.00237 11.8484 7.49943 11.8484H10.4994C10.9965 11.8484 11.3994 12.2513 11.3994 12.7484C11.3994 13.2454 10.9965 13.6484 10.4994 13.6484H7.49943C7.00237 13.6484 6.59943 13.2454 6.59943 12.7484ZM5.99943 15.5984C5.50237 15.5984 5.09943 16.0013 5.09943 16.4984C5.09943 16.9954 5.50237 17.3984 5.99943 17.3984H8.99943C9.49648 17.3984 9.89943 16.9954 9.89943 16.4984C9.89943 16.0013 9.49648 15.5984 8.99943 15.5984H5.99943ZM15.5994 16.4984C15.5994 16.0013 16.0024 15.5984 16.4994 15.5984H17.9994C18.4965 15.5984 18.8994 16.0013 18.8994 16.4984C18.8994 16.9954 18.4965 17.3984 17.9994 17.3984H16.4994C16.0024 17.3984 15.5994 16.9954 15.5994 16.4984ZM16.4994 11.8484C16.0024 11.8484 15.5994 12.2513 15.5994 12.7484C15.5994 13.2454 16.0024 13.6484 16.4994 13.6484H17.9994C18.4965 13.6484 18.8994 13.2454 18.8994 12.7484C18.8994 12.2513 18.4965 11.8484 17.9994 11.8484H16.4994Z" fill="#252525"/>
</svg>
