<svg width="24" height="24" viewBox="0 0 24 24" fill="none" xmlns="http://www.w3.org/2000/svg">
<path d="M9.075 1.22727C9.075 0.68754 8.63848 0.25 8.1 0.25C7.56152 0.25 7.125 0.68754 7.125 1.22727V2.2404C7.02141 2.24627 6.92115 2.2531 6.82409 2.26105C6.11346 2.31925 5.48928 2.4422 4.9118 2.73713C3.99451 3.2056 3.24873 3.95312 2.78134 4.87255C2.4871 5.45138 2.36443 6.07701 2.30637 6.7893C2.24998 7.48109 2.24999 8.33537 2.25 9.39453V9.43636V14.5182V14.56C2.24999 15.6192 2.24998 16.4735 2.30637 17.1652C2.36443 17.8775 2.4871 18.5032 2.78134 19.082C3.24873 20.0014 3.99451 20.7489 4.9118 21.2174C5.48928 21.5123 6.11346 21.6353 6.82409 21.6935C7.51425 21.75 8.36651 21.75 9.42314 21.75H9.42324H9.465H14.535H14.5768H14.5769C15.6335 21.75 16.4858 21.75 17.1759 21.6935C17.8865 21.6353 18.5107 21.5123 19.0882 21.2174C20.0055 20.7489 20.7513 20.0014 21.2187 19.082C21.5129 18.5032 21.6356 17.8775 21.6936 17.1652C21.75 16.4735 21.75 15.6192 21.75 14.5601V14.56V14.5182V9.43636V9.39451V9.3944C21.75 8.33531 21.75 7.48106 21.6936 6.7893C21.6356 6.07701 21.5129 5.45138 21.2187 4.87255C20.7513 3.95312 20.0055 3.2056 19.0882 2.73713C18.5107 2.4422 17.8865 2.31925 17.1759 2.26105C17.0789 2.2531 16.9786 2.24627 16.875 2.2404V1.22727C16.875 0.68754 16.4385 0.25 15.9 0.25C15.3615 0.25 14.925 0.68754 14.925 1.22727V2.20462C14.8114 2.20454 14.6954 2.20454 14.5767 2.20455H14.535H12.975V1.22727C12.975 0.68754 12.5385 0.25 12 0.25C11.4615 0.25 11.025 0.68754 11.025 1.22727V2.20455H9.465H9.42326L9.075 2.20462V1.22727ZM14.925 4.15921V5.13636C14.925 5.6761 15.3615 6.11364 15.9 6.11364C16.4385 6.11364 16.875 5.6761 16.875 5.13636V4.19856C16.9234 4.2018 16.9708 4.20531 17.0171 4.2091C17.6072 4.25742 17.9462 4.3475 18.2029 4.47864C18.7533 4.75972 19.2008 5.20823 19.4812 5.75989C19.612 6.01726 19.7019 6.35705 19.7501 6.94846C19.7992 7.55128 19.8 8.32559 19.8 9.43636V14.5182C19.8 15.629 19.7992 16.4033 19.7501 17.0061C19.7019 17.5975 19.612 17.9373 19.4812 18.1947C19.2008 18.7463 18.7533 19.1948 18.2029 19.4759C17.9462 19.607 17.6072 19.6971 17.0171 19.7454C16.4157 19.7947 15.6432 19.7955 14.535 19.7955H9.465C8.35681 19.7955 7.5843 19.7947 6.98288 19.7454C6.39285 19.6971 6.05385 19.607 5.79708 19.4759C5.2467 19.1948 4.79924 18.7463 4.51881 18.1947C4.38797 17.9373 4.2981 17.5975 4.2499 17.0061C4.20076 16.4033 4.2 15.629 4.2 14.5182V9.43636C4.2 8.32559 4.20076 7.55128 4.2499 6.94846C4.2981 6.35705 4.38797 6.01726 4.51881 5.75989C4.79924 5.20823 5.2467 4.75972 5.79708 4.47864C6.05385 4.3475 6.39285 4.25742 6.98288 4.2091C7.02922 4.20531 7.07656 4.2018 7.125 4.19856V5.13636C7.125 5.6761 7.56152 6.11364 8.1 6.11364C8.63848 6.11364 9.075 5.6761 9.075 5.13636V4.15921L9.465 4.15909H11.025V5.13636C11.025 5.6761 11.4615 6.11364 12 6.11364C12.5385 6.11364 12.975 5.6761 12.975 5.13636V4.15909H14.535C14.6699 4.15909 14.7998 4.1591 14.925 4.15921ZM6.15 9.04545C6.15 8.50572 6.58652 8.06818 7.125 8.06818H16.875C17.4135 8.06818 17.85 8.50572 17.85 9.04545C17.85 9.58519 17.4135 10.0227 16.875 10.0227H7.125C6.58652 10.0227 6.15 9.58519 6.15 9.04545ZM7.125 11.9773C6.58652 11.9773 6.15 12.4148 6.15 12.9545C6.15 13.4943 6.58652 13.9318 7.125 13.9318H12.975C13.5135 13.9318 13.95 13.4943 13.95 12.9545C13.95 12.4148 13.5135 11.9773 12.975 11.9773H7.125ZM6.15 16.8636C6.15 16.3239 6.58652 15.8864 7.125 15.8864H9.075C9.61348 15.8864 10.05 16.3239 10.05 16.8636C10.05 17.4034 9.61348 17.8409 9.075 17.8409H7.125C6.58652 17.8409 6.15 17.4034 6.15 16.8636Z" fill="#252525"/>
</svg>
