<svg width="24" height="24" viewBox="0 0 24 24" fill="none" xmlns="http://www.w3.org/2000/svg">
<path fill-rule="evenodd" clip-rule="evenodd" d="M12.5019 3.92336C10.5333 3.80017 8.58744 4.39987 7.02971 5.60983C5.47198 6.8198 4.40954 8.55681 4.04189 10.4947C3.67512 12.4279 4.02496 14.4283 5.02571 16.1221C5.15473 16.3322 5.19548 16.5919 5.12436 16.8408L4.31042 19.6896L7.15924 18.8756C7.40441 18.8056 7.66463 18.8435 7.8772 18.9739C9.57117 19.975 11.5719 20.3249 13.5054 19.9581C15.4432 19.5905 17.1802 18.528 18.3902 16.9703C19.6002 15.4125 20.1998 13.4667 20.0766 11.4981C19.9534 9.5295 19.1158 7.6736 17.7211 6.27887C16.3264 4.88415 14.4705 4.04655 12.5019 3.92336ZM7.29116 20.71C9.28902 21.7897 11.6018 22.1514 13.8409 21.7266C16.2096 21.2772 18.3328 19.9785 19.8117 18.0745C21.2907 16.1704 22.0237 13.7919 21.8731 11.3857C21.7225 8.97941 20.6987 6.71089 18.9939 5.00608C17.2891 3.30127 15.0206 2.27745 12.6143 2.12688C10.208 1.9763 7.82957 2.70932 5.92552 4.18829C4.02148 5.66727 2.72283 7.79046 2.27343 10.1592C1.84864 12.3982 2.21028 14.711 3.29003 16.7088L2.5055 19.4547C2.42466 19.7376 2.42095 20.037 2.49476 20.3219C2.56857 20.6067 2.71721 20.8667 2.92528 21.0747C3.13336 21.2828 3.39328 21.4314 3.67813 21.5052C3.96297 21.5791 4.26238 21.5753 4.54531 21.4945L7.29116 20.71Z" fill="#252525"/>
</svg>
