<svg width="24" height="24" viewBox="0 0 24 24" fill="none" xmlns="http://www.w3.org/2000/svg">
<path d="M12.5019 3.92336C14.4705 4.04655 16.3264 4.88415 17.7211 6.27887C19.1158 7.6736 19.9534 9.5295 20.0766 11.4981C20.1998 13.4667 19.6002 15.4125 18.3902 16.9703C17.1802 18.528 15.4432 19.5905 13.5054 19.9581C11.5719 20.3249 9.57117 19.975 7.8772 18.9739C7.66463 18.8435 7.40441 18.8056 7.15924 18.8756L4.31042 19.6896L5.12436 16.8408C5.19548 16.5919 5.15473 16.3322 5.02571 16.1221C4.02496 14.4283 3.67512 12.4279 4.04189 10.4947C4.40954 8.55681 5.47198 6.8198 7.02971 5.60983C8.58744 4.39987 10.5333 3.80017 12.5019 3.92336ZM7.29116 20.71C9.28902 21.7897 11.6018 22.1514 13.8409 21.7266C16.2096 21.2772 18.3328 19.9785 19.8117 18.0745C21.2907 16.1704 22.0237 13.7919 21.8731 11.3857C21.7225 8.97941 20.6987 6.71088 18.9939 5.00608C17.2891 3.30127 15.0206 2.27745 12.6143 2.12688C10.208 1.9763 7.82957 2.70932 5.92552 4.18829C4.02148 5.66727 2.72283 7.79046 2.27343 10.1592C1.84864 12.3982 2.21028 14.711 3.29003 16.7088L2.5055 19.4547C2.42466 19.7376 2.42095 20.037 2.49476 20.3219C2.56857 20.6067 2.71721 20.8667 2.92528 21.0747C3.13336 21.2828 3.39328 21.4314 3.67813 21.5052C3.96297 21.5791 4.26238 21.5753 4.54531 21.4945L7.29116 20.71ZM8.10001 10.5C8.10001 10.0029 8.50295 9.59998 9.00001 9.59998H15C15.4971 9.59998 15.9 10.0029 15.9 10.5C15.9 10.997 15.4971 11.4 15 11.4H9.00001C8.50295 11.4 8.10001 10.997 8.10001 10.5ZM9.00001 12.6C8.50295 12.6 8.10001 13.0029 8.10001 13.5C8.10001 13.997 8.50295 14.4 9.00001 14.4H15C15.4971 14.4 15.9 13.997 15.9 13.5C15.9 13.0029 15.4971 12.6 15 12.6H9.00001Z" fill="#09264B"/>
</svg>
