<svg width="24" height="24" viewBox="0 0 24 24" fill="none" xmlns="http://www.w3.org/2000/svg">
<path fill-rule="evenodd" clip-rule="evenodd" d="M19.3864 5.88637C19.7378 5.5349 19.7378 4.96505 19.3864 4.61358C19.0349 4.26211 18.4651 4.26211 18.1136 4.61358L12 10.7272L5.88637 4.61358C5.5349 4.26211 4.96505 4.26211 4.61358 4.61358C4.26211 4.96505 4.26211 5.5349 4.61358 5.88637L10.7272 12L4.61358 18.1136C4.26211 18.4651 4.26211 19.0349 4.61358 19.3864C4.96505 19.7378 5.5349 19.7378 5.88637 19.3864L12 13.2728L18.1136 19.3864C18.4651 19.7378 19.0349 19.7378 19.3864 19.3864C19.7378 19.0349 19.7378 18.4651 19.3864 18.1136L13.2728 12L19.3864 5.88637Z" fill="#252525"/>
</svg>
