<svg width="24" height="24" viewBox="0 0 24 24" fill="none" xmlns="http://www.w3.org/2000/svg">
<path fill-rule="evenodd" clip-rule="evenodd" d="M3.89998 12C3.89998 7.52647 7.52647 3.89998 12 3.89998C16.4735 3.89998 20.1 7.52647 20.1 12C20.1 16.4735 16.4735 20.1 12 20.1C7.52647 20.1 3.89998 16.4735 3.89998 12ZM12 2.09998C6.53236 2.09998 2.09998 6.53236 2.09998 12C2.09998 17.4676 6.53236 21.9 12 21.9C17.4676 21.9 21.9 17.4676 21.9 12C21.9 6.53236 17.4676 2.09998 12 2.09998ZM13.125 12C13.125 12.6213 12.6213 13.125 12 13.125C11.3787 13.125 10.875 12.6213 10.875 12C10.875 11.3787 11.3787 10.875 12 10.875C12.6213 10.875 13.125 11.3787 13.125 12ZM12 8.62498C12.6213 8.62498 13.125 8.1213 13.125 7.49998C13.125 6.87866 12.6213 6.37498 12 6.37498C11.3787 6.37498 10.875 6.87866 10.875 7.49998C10.875 8.1213 11.3787 8.62498 12 8.62498ZM13.125 16.5C13.125 17.1213 12.6213 17.625 12 17.625C11.3787 17.625 10.875 17.1213 10.875 16.5C10.875 15.8787 11.3787 15.375 12 15.375C12.6213 15.375 13.125 15.8787 13.125 16.5Z" fill="#252525"/>
</svg>
