<svg width="24" height="24" viewBox="0 0 24 24" fill="none" xmlns="http://www.w3.org/2000/svg">
<path fill-rule="evenodd" clip-rule="evenodd" d="M12 4.34924C7.95062 4.34924 5.10898 6.18012 3.30104 7.98825C2.39968 8.88972 1.7499 9.78962 1.32428 10.4657C1.11103 10.8044 0.952765 11.089 0.846263 11.2923C0.792979 11.3941 0.752549 11.4757 0.72458 11.5338C0.710592 11.5628 0.699711 11.586 0.691888 11.6029L0.682438 11.6236L0.679419 11.6303L0.678333 11.6327L0.677897 11.6337C0.57448 11.8664 0.574491 12.1337 0.677926 12.3664L0.678363 12.3673L0.679448 12.3698L0.682468 12.3765L0.69192 12.3971C0.699743 12.414 0.710625 12.4372 0.724613 12.4662C0.752583 12.5243 0.793015 12.6059 0.8463 12.7076C0.952805 12.9109 1.11107 13.1955 1.32433 13.5341C1.74995 14.21 2.39974 15.1098 3.30111 16.011C5.10907 17.8188 7.95069 19.6492 12 19.6492C16.0493 19.6492 18.8909 17.8188 20.6988 16.011C21.6002 15.1098 22.25 14.21 22.6756 13.5341C22.8889 13.1955 23.0471 12.9109 23.1537 12.7076C23.2069 12.6059 23.2474 12.5243 23.2753 12.4662C23.2893 12.4372 23.3002 12.414 23.308 12.3971L23.3175 12.3765L23.3205 12.3698L23.322 12.3664C23.4255 12.1337 23.4255 11.8664 23.3221 11.6337L23.3216 11.6327L23.3205 11.6303L23.3175 11.6236L23.3081 11.6029C23.3002 11.586 23.2894 11.5628 23.2754 11.5338C23.2474 11.4757 23.207 11.3941 23.1537 11.2923C23.0472 11.089 22.8889 10.8044 22.6757 10.4657C22.2501 9.78962 21.6003 8.88972 20.6989 7.98825C18.891 6.18012 16.0493 4.34924 12 4.34924ZM22.5 12C23.3224 12.3655 23.3222 12.3659 23.322 12.3664L22.5 12ZM23.3221 11.6337C23.3222 11.6341 23.3224 11.6345 22.5 12L23.3221 11.6337ZM1.49998 12C0.67753 11.6345 0.677708 11.6341 0.677897 11.6337L1.49998 12ZM0.677926 12.3664C0.677737 12.3659 0.67756 12.3655 1.49998 12L0.677926 12.3664ZM2.8475 12.575C2.70531 12.3492 2.59288 12.1536 2.50902 11.9999C2.59288 11.8462 2.70533 11.6506 2.84755 11.4247C3.2188 10.835 3.78778 10.0472 4.57391 9.26097C6.14097 7.69373 8.54933 6.14924 12 6.14924C15.4506 6.14924 17.859 7.69373 19.426 9.26097C20.2122 10.0472 20.7811 10.835 21.1524 11.4247C21.2946 11.6506 21.4071 11.8462 21.4909 11.9999C21.4071 12.1536 21.2946 12.3492 21.1525 12.575C20.7812 13.1645 20.2122 13.9521 19.4261 14.7382C17.8591 16.3051 15.4507 17.8492 12 17.8492C8.54926 17.8492 6.14088 16.3051 4.57384 14.7382C3.78771 13.9521 3.21875 13.1645 2.8475 12.575ZM9.14998 12C9.14998 10.426 10.426 9.15004 12 9.15004C13.574 9.15004 14.85 10.426 14.85 12C14.85 13.574 13.574 14.85 12 14.85C10.426 14.85 9.14998 13.574 9.14998 12ZM12 7.35004C9.43185 7.35004 7.34998 9.43191 7.34998 12C7.34998 14.5682 9.43185 16.65 12 16.65C14.5681 16.65 16.65 14.5682 16.65 12C16.65 9.43191 14.5681 7.35004 12 7.35004Z" fill="#252525"/>
</svg>
