<svg width="24" height="24" viewBox="0 0 24 24" fill="none" xmlns="http://www.w3.org/2000/svg">
<path fill-rule="evenodd" clip-rule="evenodd" d="M3.70003 9.26645C3.38766 8.87981 2.821 8.81959 2.43436 9.13196C2.04772 9.44432 1.9875 10.011 2.29986 10.3976C2.75163 10.9568 3.30858 11.56 3.97727 12.1428L2.21014 15.2035C1.96162 15.634 2.1091 16.1844 2.53957 16.433C2.97003 16.6815 3.52046 16.534 3.76899 16.1035L5.42473 13.2357C6.31207 13.8105 7.33633 14.3118 8.50591 14.6571L7.98379 17.6182C7.89748 18.1077 8.22433 18.5745 8.71384 18.6608C9.20334 18.7471 9.67014 18.4202 9.75645 17.9307L10.2672 15.034C10.8182 15.1093 11.3955 15.15 12 15.15C12.6014 15.15 13.176 15.1097 13.7244 15.0352L14.2352 17.9319C14.3215 18.4214 14.7883 18.7482 15.2778 18.6619C15.7673 18.5756 16.0941 18.1088 16.0078 17.6193L15.4859 14.6595C16.6571 14.3147 17.6827 13.8134 18.5711 13.2384L20.2167 16.0887C20.4653 16.5191 21.0157 16.6666 21.4462 16.4181C21.8766 16.1696 22.0241 15.6191 21.7756 15.1887L20.0189 12.1461C20.6893 11.5623 21.2475 10.9579 21.7001 10.3976C22.0125 10.011 21.9523 9.44434 21.5656 9.13198C21.179 8.81961 20.6123 8.87983 20.3 9.26647C19.7901 9.89758 19.1396 10.5796 18.3349 11.2021C18.3168 11.2151 18.2992 11.2286 18.2822 11.2427C16.7609 12.4051 14.6965 13.35 12 13.35C9.30073 13.35 7.2349 12.4031 5.71311 11.2391C5.69678 11.2256 5.67989 11.2126 5.66244 11.2001C4.85898 10.5781 4.20934 9.89688 3.70003 9.26645Z" fill="#252525"/>
</svg>
