<svg width="24" height="24" viewBox="0 0 24 24" fill="none" xmlns="http://www.w3.org/2000/svg">
<path fill-rule="evenodd" clip-rule="evenodd" d="M5.39924 3.89998V20.1H18.6V9.14998H14.25C13.7529 9.14998 13.35 8.74703 13.35 8.24998V3.89998H5.39924ZM15.15 5.17277L17.3272 7.34998H15.15V5.17277ZM4.08252 2.58325C4.39195 2.27381 4.81164 2.09998 5.24924 2.09998H14.25C14.4887 2.09998 14.7176 2.1948 14.8864 2.36358L20.1364 7.61358C20.3052 7.78236 20.4 8.01128 20.4 8.24998V20.25C20.4 20.4667 20.3573 20.6812 20.2744 20.8814C20.1915 21.0816 20.0699 21.2635 19.9167 21.4167C19.7635 21.5699 19.5816 21.6915 19.3814 21.7744C19.1812 21.8573 18.9667 21.9 18.75 21.9H5.24924C4.81164 21.9 4.39195 21.7261 4.08252 21.4167C3.77308 21.1073 3.59924 20.6876 3.59924 20.25V3.74998C3.59924 3.31237 3.77308 2.89268 4.08252 2.58325ZM11.3636 10.6136C11.7151 10.2621 12.2849 10.2621 12.6364 10.6136L15.2614 13.2386C15.6128 13.5901 15.6128 14.1599 15.2614 14.5114C14.9099 14.8628 14.3401 14.8628 13.9886 14.5114L12.9 13.4228V17.25C12.9 17.747 12.497 18.15 12 18.15C11.5029 18.15 11.1 17.747 11.1 17.25V13.4228L10.0114 14.5114C9.6599 14.8628 9.09005 14.8628 8.73858 14.5114C8.38711 14.1599 8.38711 13.5901 8.73858 13.2386L11.3636 10.6136Z" fill="#252525"/>
</svg>
