<svg width="24" height="24" viewBox="0 0 24 24" xmlns="http://www.w3.org/2000/svg" fill="none"><path d="M8.4 5.1h4.35c.239 0 .468.095.636.264l3.75 3.75c.169.169.264.398.264.636v7.35h1.2v-9.977l-3.223-3.223h-6.977v1.2zm-1.8 0v-1.35c0-.438.174-.857.483-1.167.309-.309.729-.483 1.167-.483h7.5c.239 0 .468.095.636.264l3.75 3.75c.169.169.264.398.264.636v10.5c0 .438-.174.857-.483 1.167-.309.309-.729.483-1.167.483h-1.35v1.35c0 .438-.174.857-.483 1.167-.309.309-.729.483-1.167.483h-10.5c-.438 0-.857-.174-1.167-.483-.309-.309-.483-.729-.483-1.167v-13.5c0-.438.174-.857.483-1.167.309-.309.729-.483 1.167-.483h1.35zm9 12.9v-7.877l-3.223-3.223h-6.977v13.2h10.2v-2.1zm-8.25-3.75c0-.497.403-.9.9-.9h4.5c.497 0 .9.403.9.9s-.403.9-.9.9h-4.5c-.497 0-.9-.403-.9-.9zm.9 2.1c-.497 0-.9.403-.9.9s.403.9.9.9h4.5c.497 0 .9-.403.9-.9s-.403-.9-.9-.9h-4.5z" fill="#252525"/></svg>