<svg width="20" height="20" viewBox="0 0 20 20" fill="none" xmlns="http://www.w3.org/2000/svg">
<path fill-rule="evenodd" clip-rule="evenodd" d="M4.49902 3.25V16.75H15.4996V7.62505H11.8746C11.4604 7.62505 11.1246 7.28926 11.1246 6.87505V3.25H4.49902ZM12.6246 4.31066L14.439 6.12505H12.6246V4.31066ZM3.40175 2.15273C3.65961 1.89487 4.00935 1.75 4.37402 1.75H11.8746C12.0735 1.75 12.2643 1.82902 12.405 1.96967L16.78 6.34467C16.9206 6.48532 16.9996 6.67609 16.9996 6.875V16.875C16.9996 17.0556 16.9641 17.2344 16.895 17.4012C16.8259 17.568 16.7246 17.7196 16.5969 17.8473C16.4692 17.975 16.3176 18.0762 16.1508 18.1453C15.984 18.2144 15.8052 18.25 15.6246 18.25H4.37402C4.00935 18.25 3.65962 18.1051 3.40175 17.8473C3.14389 17.5894 2.99902 17.2397 2.99902 16.875V3.125C2.99902 2.76033 3.14389 2.41059 3.40175 2.15273ZM9.99963 8.625C10.4138 8.625 10.7496 8.96079 10.7496 9.375V12.5643L11.6568 11.6572C11.9497 11.3643 12.4246 11.3643 12.7175 11.6572C13.0104 11.9501 13.0104 12.4249 12.7175 12.7178L10.53 14.9053C10.2371 15.1982 9.7622 15.1982 9.4693 14.9053L7.2818 12.7178C6.98891 12.4249 6.98891 11.9501 7.2818 11.6572C7.5747 11.3643 8.04957 11.3643 8.34246 11.6572L9.24963 12.5643V9.375C9.24963 8.96079 9.58542 8.625 9.99963 8.625Z" fill="#252525"/>
</svg>
