<svg width="24" height="24" viewBox="0 0 24 24" fill="none" xmlns="http://www.w3.org/2000/svg">
<path d="M20.0546 3.59998C20.3742 3.59998 20.687 3.69283 20.9549 3.86724C21.2228 4.04166 21.4342 4.29013 21.5635 4.58246C21.6929 4.87479 21.7345 5.19839 21.6833 5.51393C21.6322 5.82947 21.4905 6.12336 21.2755 6.35989L15.15 13.0979V18.3486C15.15 18.6202 15.0829 18.8877 14.9548 19.1272C14.8266 19.3666 14.6413 19.5708 14.4153 19.7215L11.4153 21.7215C11.1668 21.8871 10.878 21.9822 10.5797 21.9967C10.2814 22.0111 9.98474 21.9443 9.72143 21.8034C9.45812 21.6624 9.23799 21.4527 9.08452 21.1965C8.93105 20.9403 8.85 20.6472 8.85 20.3486V13.0979L2.72451 6.35989C2.50949 6.12336 2.3678 5.82947 2.31666 5.51393C2.26552 5.19839 2.30715 4.87479 2.43646 4.58246C2.56578 4.29013 2.77723 4.04166 3.0451 3.86724C3.31298 3.69283 3.62576 3.59998 3.94541 3.59998H20.0546ZM19.7155 5.40002H4.28448L10.2209 11.9301C10.497 12.2338 10.65 12.6295 10.65 13.04V20.0684L13.35 18.2684V13.04C13.35 12.6295 13.503 12.2338 13.7791 11.9301L19.7155 5.40002Z" fill="#252525"/>
</svg>
