<svg width="24" height="24" viewBox="0 0 24 24" fill="none" xmlns="http://www.w3.org/2000/svg">
<path fill-rule="evenodd" clip-rule="evenodd" d="M5.00001 19.9C3.39838 19.9 2.10001 18.6016 2.10001 17L2.10001 7.00003C2.10001 5.3984 3.39838 4.10003 5.00001 4.10003L19 4.10003C20.6016 4.10003 21.9 5.3984 21.9 7.00002L21.9 17C21.9 18.6016 20.6016 19.9 19 19.9L5.00001 19.9ZM3.90001 17C3.90001 17.6075 4.39249 18.1 5.00001 18.1L19 18.1C19.6075 18.1 20.1 17.6075 20.1 17L20.1 7.00002C20.1 6.39251 19.6075 5.90002 19 5.90002L5.00001 5.90003C4.39249 5.90003 3.90001 6.39251 3.90001 7.00003L3.90001 17ZM6.29722 8.4378C6.60773 8.04966 7.1741 7.98673 7.56223 8.29724L11.3128 11.2977C11.7146 11.6191 12.2854 11.6191 12.6872 11.2977L16.4378 8.29724C16.8259 7.98673 17.3923 8.04966 17.7028 8.4378C18.0133 8.82594 17.9504 9.3923 17.5622 9.70281L13.8116 12.7033C12.7525 13.5506 11.2475 13.5506 10.1884 12.7033L6.43778 9.70281C6.04964 9.3923 5.98672 8.82593 6.29722 8.4378Z" fill="#252525"/>
</svg>
