<svg width="24" height="24" viewBox="0 0 24 24" fill="none" xmlns="http://www.w3.org/2000/svg">
<path fill-rule="evenodd" clip-rule="evenodd" d="M1.875 6C1.875 5.37868 2.19213 4.875 2.58333 4.875H13.9167C14.3079 4.875 14.625 5.37868 14.625 6C14.625 6.62132 14.3079 7.125 13.9167 7.125H2.58333C2.19213 7.125 1.875 6.62132 1.875 6ZM1.875 12C1.875 11.3787 2.37868 10.875 3 10.875H21C21.6213 10.875 22.125 11.3787 22.125 12C22.125 12.6213 21.6213 13.125 21 13.125H3C2.37868 13.125 1.875 12.6213 1.875 12ZM3 16.875C2.37868 16.875 1.875 17.3787 1.875 18C1.875 18.6213 2.37868 19.125 3 19.125H13.5C14.1213 19.125 14.625 18.6213 14.625 18C14.625 17.3787 14.1213 16.875 13.5 16.875H3Z" fill="#252525"/>
</svg>
