<svg width="24" height="24" viewBox="0 0 24 24" fill="none" xmlns="http://www.w3.org/2000/svg">
    <path fill-rule="evenodd" clip-rule="evenodd" d="M14.0228 5.99998L18 9.97719L19.7272 8.24998L15.75 4.27278L14.0228 5.99998ZM12.1113 5.36587C12.1121 5.3651 12.1128 5.36434 12.1136 5.36358C12.1143 5.36282 12.1151 5.36206 12.1159 5.3613L14.5833 2.89392C14.8927 2.58448 15.3124 2.41064 15.75 2.41064C16.1876 2.41064 16.6073 2.58448 16.9167 2.89392L21.106 7.08326C21.4155 7.39269 21.5893 7.81238 21.5893 8.24998C21.5893 8.68759 21.4155 9.10727 21.106 9.41671L18.6364 11.8864L9.63637 20.8864C9.46759 21.0552 9.23867 21.15 8.99998 21.15H4.49998C4.06237 21.15 3.64269 20.9761 3.33325 20.6667C3.02381 20.3573 2.84998 19.9376 2.84998 19.5V15.3106C2.84998 15.094 2.89265 14.8794 2.97557 14.6792C3.05849 14.479 3.18003 14.2971 3.33325 14.1439L12.1113 5.36587ZM16.7272 11.25L12.75 7.27277L4.64998 15.3728V19.35H8.62718L16.7272 11.25Z" fill="#252525"/>
</svg>
