<svg width="24" height="24" viewBox="0 0 24 24" fill="none" xmlns="http://www.w3.org/2000/svg">
<path d="M5.10005 3.99998C5.10005 3.50292 5.50299 3.09998 6.00005 3.09998H20.5001C20.9971 3.09998 21.4001 3.50292 21.4001 3.99998V19.5C21.4001 19.997 20.9971 20.4 20.5001 20.4H6.00005C5.65916 20.4 5.34752 20.2074 5.19507 19.9025L2.19507 13.9025C1.97278 13.4579 2.15298 12.9173 2.59756 12.695C3.04214 12.4727 3.58274 12.6529 3.80504 13.0975L6.55628 18.6H13.1001V13.5C13.1001 13.0029 13.503 12.6 14.0001 12.6C14.4971 12.6 14.9001 13.0029 14.9001 13.5V18.6H19.6001V14.4H18.5001C18.003 14.4 17.6001 13.997 17.6001 13.5C17.6001 13.0029 18.003 12.6 18.5001 12.6H19.6001V4.89998H14.1501V9.59998H15.0001C15.4971 9.59998 15.9001 10.0029 15.9001 10.5C15.9001 10.997 15.4971 11.4 15.0001 11.4H11.5001C11.003 11.4 10.6001 10.997 10.6001 10.5C10.6001 10.0029 11.003 9.59998 11.5001 9.59998H12.3501V4.89998H6.90005V9.59998H8.50005C8.99711 9.59998 9.40005 10.0029 9.40005 10.5C9.40005 10.997 8.99711 11.4 8.50005 11.4H6.90005V12.5C6.90005 12.997 6.49711 13.4 6.00005 13.4C5.50299 13.4 5.10005 12.997 5.10005 12.5V3.99998Z" fill="#252525"/>
</svg>
