<svg width="24" height="24" viewBox="0 0 24 24" fill="none" xmlns="http://www.w3.org/2000/svg">
<path fill-rule="evenodd" clip-rule="evenodd" d="M12.9 3.74998C12.9 3.25292 12.4971 2.84998 12 2.84998C11.5029 2.84998 11.1 3.25292 11.1 3.74998V11.1H3.75001C3.25295 11.1 2.85001 11.5029 2.85001 12C2.85001 12.497 3.25295 12.9 3.75001 12.9H11.1V20.25C11.1 20.747 11.5029 21.15 12 21.15C12.4971 21.15 12.9 20.747 12.9 20.25V12.9H20.25C20.7471 12.9 21.15 12.497 21.15 12C21.15 11.5029 20.7471 11.1 20.25 11.1H12.9V3.74998Z" fill="#252525"/>
</svg>
