<svg width="24" height="24" viewBox="0 0 24 24" fill="none" xmlns="http://www.w3.org/2000/svg">
<path fill-rule="evenodd" clip-rule="evenodd" d="M2.09998 3.99998C2.09998 2.39835 3.39835 1.09998 4.99998 1.09998H16C17.6016 1.09998 18.9 2.39835 18.9 3.99998V6.49998C18.9 6.99703 18.497 7.39998 18 7.39998C17.5029 7.39998 17.1 6.99703 17.1 6.49998V3.99998C17.1 3.39246 16.6075 2.89998 16 2.89998H4.99998C4.39246 2.89998 3.89998 3.39246 3.89998 3.99998V17C3.89998 17.6075 4.39246 18.1 4.99998 18.1H11C11.497 18.1 11.9 18.5029 11.9 19C11.9 19.497 11.497 19.9 11 19.9H4.99998C3.39835 19.9 2.09998 18.6016 2.09998 17V3.99998ZM18 10.4C16.8402 10.4 15.9 11.3402 15.9 12.5C15.9 13.6598 16.8402 14.6 18 14.6C19.1598 14.6 20.1 13.6598 20.1 12.5C20.1 11.3402 19.1598 10.4 18 10.4ZM14.1 12.5C14.1 10.3461 15.8461 8.59998 18 8.59998C20.1539 8.59998 21.9 10.3461 21.9 12.5C21.9 14.6539 20.1539 16.4 18 16.4C15.8461 16.4 14.1 14.6539 14.1 12.5ZM15.1265 20.8276C15.2901 20.3576 15.5557 19.8832 15.9801 19.5283C16.39 19.1857 17.012 18.9 18 18.9C18.9881 18.9 19.61 19.1857 20.0199 19.5283C20.4443 19.8832 20.7099 20.3576 20.8735 20.8276C20.889 20.8722 20.8854 20.8945 20.8835 20.9033C20.881 20.9151 20.8733 20.9368 20.8481 20.9655C20.7934 21.0278 20.672 21.1 20.5 21.1H15.5C15.328 21.1 15.2066 21.0278 15.1519 20.9655C15.1267 20.9368 15.119 20.9151 15.1165 20.9033C15.1146 20.8945 15.111 20.8722 15.1265 20.8276ZM18 17.1C16.6297 17.1 15.5886 17.5095 14.8256 18.1474C14.0772 18.7731 13.6602 19.5646 13.4265 20.2359C13.1759 20.956 13.3653 21.6588 13.7991 22.153C14.2171 22.6292 14.8436 22.9 15.5 22.9H20.5C21.1565 22.9 21.7829 22.6292 22.2009 22.153C22.6347 21.6588 22.8241 20.956 22.5735 20.2359C22.3398 19.5646 21.9228 18.7731 21.1744 18.1474C20.4115 17.5095 19.3703 17.1 18 17.1ZM6.09998 5.99998C6.09998 5.50292 6.50292 5.09998 6.99998 5.09998H14C14.497 5.09998 14.9 5.50292 14.9 5.99998C14.9 6.49703 14.497 6.89998 14 6.89998H6.99998C6.50292 6.89998 6.09998 6.49703 6.09998 5.99998ZM6.99998 8.59998C6.50292 8.59998 6.09998 9.00292 6.09998 9.49998C6.09998 9.99703 6.50292 10.4 6.99998 10.4H11C11.497 10.4 11.9 9.99703 11.9 9.49998C11.9 9.00292 11.497 8.59998 11 8.59998L6.99998 8.59998Z" fill="#252525"/>
</svg>
