<svg width="24" height="24" viewBox="0 0 24 24" fill="none" xmlns="http://www.w3.org/2000/svg">
<path fill-rule="evenodd" clip-rule="evenodd" d="M3.89998 10.875C3.89998 7.02279 7.02279 3.89998 10.875 3.89998C14.7272 3.89998 17.85 7.02279 17.85 10.875C17.85 14.7272 14.7272 17.85 10.875 17.85C7.02279 17.85 3.89998 14.7272 3.89998 10.875ZM10.875 2.09998C6.02868 2.09998 2.09998 6.02868 2.09998 10.875C2.09998 15.7213 6.02868 19.65 10.875 19.65C12.9738 19.65 14.9005 18.9131 16.4106 17.684L20.3631 21.6365C20.7145 21.9879 21.2844 21.9879 21.6359 21.6365C21.9873 21.285 21.9873 20.7151 21.6359 20.3637L17.6834 16.4113C18.9129 14.9011 19.65 12.9741 19.65 10.875C19.65 6.02868 15.7213 2.09998 10.875 2.09998Z" fill="#252525"/>
</svg>
