<svg width="24" height="24" viewBox="0 0 24 24" fill="none" xmlns="http://www.w3.org/2000/svg">
<path fill-rule="evenodd" clip-rule="evenodd" d="M9.74998 4.64998H4.64998V19.35H9.74998C10.247 19.35 10.65 19.7529 10.65 20.25C10.65 20.747 10.247 21.15 9.74998 21.15H4.49998C4.06237 21.15 3.64269 20.9761 3.33325 20.6667C3.02381 20.3573 2.84998 19.9376 2.84998 19.5V4.49998C2.84998 4.06237 3.02381 3.64268 3.33325 3.33325C3.64268 3.02381 4.06237 2.84998 4.49998 2.84998H9.74998C10.247 2.84998 10.65 3.25292 10.65 3.74998C10.65 4.24703 10.247 4.64998 9.74998 4.64998ZM15.6772 7.426C16.0287 7.07457 16.5986 7.07465 16.95 7.42616L20.8865 11.3637C21.2378 11.7151 21.2378 12.2848 20.8865 12.6363L16.95 16.5738C16.5986 16.9253 16.0287 16.9254 15.6772 16.574C15.3257 16.2225 15.3256 15.6527 15.677 15.3012L18.0776 12.9H9.74998C9.25292 12.9 8.84998 12.497 8.84998 12C8.84998 11.5029 9.25292 11.1 9.74998 11.1H18.0776L15.677 8.69879C15.3256 8.34727 15.3257 7.77742 15.6772 7.426Z" fill="#252525"/>
</svg>
