<svg width="24" height="24" viewBox="0 0 24 24" fill="none" xmlns="http://www.w3.org/2000/svg">
<path fill-rule="evenodd" clip-rule="evenodd" d="M3.60001 5.99937C3.60001 5.50231 4.00295 5.09937 4.50001 5.09937H17.2499C17.747 5.09937 18.1499 5.50231 18.1499 5.99937C18.1499 6.49642 17.747 6.89937 17.2499 6.89937H4.50001C4.00295 6.89937 3.60001 6.49642 3.60001 5.99937ZM17.25 9.5993C17.7471 9.5993 18.15 10.0022 18.15 10.4993V17.3268L20.3636 15.1135C20.7151 14.762 21.2849 14.7621 21.6364 15.1136C21.9878 15.4651 21.9878 16.0349 21.6363 16.3864L17.8864 20.1358C17.7432 20.279 17.5637 20.3638 17.3775 20.3903C17.293 20.4024 17.207 20.4024 17.1225 20.3903C17.0746 20.3835 17.028 20.373 16.9829 20.359C16.8478 20.3171 16.7206 20.2427 16.6136 20.1358L12.8636 16.3858C12.5121 16.0343 12.5121 15.4644 12.8636 15.113C13.2151 14.7615 13.7849 14.7615 14.1364 15.113L16.35 17.3266V10.4993C16.35 10.0022 16.7529 9.5993 17.25 9.5993ZM4.50001 11.0994C4.00295 11.0994 3.60001 11.5023 3.60001 11.9994C3.60001 12.4964 4.00295 12.8994 4.50001 12.8994H11.2499C11.747 12.8994 12.1499 12.4964 12.1499 11.9994C12.1499 11.5023 11.747 11.0994 11.2499 11.0994H4.50001ZM4.50001 17.0994C4.00295 17.0994 3.60001 17.5023 3.60001 17.9994C3.60001 18.4964 4.00295 18.8994 4.50001 18.8994H9.75001C10.2471 18.8994 10.65 18.4964 10.65 17.9994C10.65 17.5023 10.2471 17.0994 9.75001 17.0994H4.50001Z" fill="#252525"/>
</svg>
