<svg width="24" height="24" viewBox="0 0 24 24" fill="none" xmlns="http://www.w3.org/2000/svg">
<path fill-rule="evenodd" clip-rule="evenodd" d="M17.25 3.59937C17.3715 3.59937 17.4874 3.62344 17.5931 3.66708C17.6998 3.711 17.7997 3.77628 17.8864 3.86292L21.6363 7.61227C21.9878 7.96371 21.9878 8.53356 21.6364 8.88506C21.2849 9.23656 20.7151 9.2366 20.3636 8.88516L18.15 6.67192V13.4994C18.15 13.9964 17.7471 14.3994 17.25 14.3994C16.7529 14.3994 16.35 13.9964 16.35 13.4994V6.67216L14.1364 8.88577C13.7849 9.23724 13.2151 9.23724 12.8636 8.88577C12.5121 8.53429 12.5121 7.96445 12.8636 7.61297L16.6122 3.86442L16.6259 3.85086C16.7877 3.69512 17.0077 3.59937 17.25 3.59937ZM4.5 11.0994C4.00294 11.0994 3.6 11.5023 3.6 11.9994C3.6 12.4964 4.00294 12.8994 4.5 12.8994H11.2499C11.747 12.8994 12.1499 12.4964 12.1499 11.9994C12.1499 11.5023 11.747 11.0994 11.2499 11.0994H4.5ZM3.6 5.99937C3.6 5.50231 4.00294 5.09937 4.5 5.09937H9.74991C10.247 5.09937 10.6499 5.50231 10.6499 5.99937C10.6499 6.49642 10.247 6.89937 9.74991 6.89937H4.5C4.00294 6.89937 3.6 6.49642 3.6 5.99937ZM4.5 17.0994C4.00294 17.0994 3.6 17.5023 3.6 17.9994C3.6 18.4964 4.00294 18.8994 4.5 18.8994H17.2499C17.747 18.8994 18.1499 18.4964 18.1499 17.9994C18.1499 17.5023 17.747 17.0994 17.2499 17.0994H4.5Z" fill="#252525"/>
</svg>
