<svg width="24" height="24" viewBox="0 0 24 24" fill="none" xmlns="http://www.w3.org/2000/svg">
<path d="M9.98472 3.98472C10.5192 3.45024 11.2441 3.14998 12 3.14998C12.7558 3.14998 13.4808 3.45024 14.0152 3.98472C14.5142 4.48374 14.8091 5.14875 14.846 5.84998H9.15392C9.19085 5.14875 9.48571 4.48374 9.98472 3.98472ZM12 1.34998C10.7667 1.34998 9.58397 1.83988 8.71193 2.71193C8.66674 2.75712 8.62257 2.80315 8.57944 2.84998H5.24998C4.81237 2.84998 4.39268 3.02381 4.08325 3.33325C3.77381 3.64268 3.59998 4.06237 3.59998 4.49998V20.25C3.59998 20.6876 3.77381 21.1073 4.08325 21.4167C4.39269 21.7261 4.81237 21.9 5.24998 21.9H18.75C19.1876 21.9 19.6073 21.7261 19.9167 21.4167C20.2261 21.1073 20.4 20.6876 20.4 20.25V4.49998C20.4 4.06237 20.2261 3.64269 19.9167 3.33325C19.6073 3.02381 19.1876 2.84998 18.75 2.84998H15.4205C15.3774 2.80315 15.3332 2.75712 15.288 2.71193C14.416 1.83988 13.2332 1.34998 12 1.34998ZM16.4497 4.64998H18.6V20.1H5.39998V4.64998H7.55025C7.41862 5.0838 7.34998 5.53835 7.34998 5.99998V6.74998C7.34998 7.24703 7.75292 7.64998 8.24998 7.64998H15.75C16.247 7.64998 16.65 7.24703 16.65 6.74998V5.99998C16.65 5.53835 16.5813 5.0838 16.4497 4.64998ZM8.99998 10.35C8.50292 10.35 8.09998 10.7529 8.09998 11.25C8.09998 11.747 8.50292 12.15 8.99998 12.15H15C15.497 12.15 15.9 11.747 15.9 11.25C15.9 10.7529 15.497 10.35 15 10.35H8.99998ZM8.99998 13.35C8.50292 13.35 8.09998 13.7529 8.09998 14.25C8.09998 14.747 8.50292 15.15 8.99998 15.15H15C15.497 15.15 15.9 14.747 15.9 14.25C15.9 13.7529 15.497 13.35 15 13.35H8.99998Z" fill="#252525"/>
</svg>
