<svg width="24" height="24" viewBox="0 0 24 24" fill="none" xmlns="http://www.w3.org/2000/svg">
<path fill-rule="evenodd" clip-rule="evenodd" d="M9.74998 1.34998C9.11346 1.34998 8.50301 1.60283 8.05292 2.05292C7.60283 2.50301 7.34998 3.11346 7.34998 3.74998V4.35L5.25786 4.35001L5.24998 4.34998L5.24209 4.35001L3.74961 4.35001C3.25255 4.35001 2.84961 4.75296 2.84961 5.25001C2.84961 5.74707 3.25256 6.15001 3.74961 6.15001L4.34998 6.15001V19.5C4.34998 19.9376 4.52381 20.3573 4.83325 20.6667C5.14269 20.9761 5.56237 21.15 5.99998 21.15H18C18.4376 21.15 18.8573 20.9761 19.1667 20.6667C19.4761 20.3573 19.65 19.9376 19.65 19.5V6.14998L20.2496 6.14998C20.7467 6.14997 21.1496 5.74703 21.1496 5.24997C21.1496 4.75292 20.7467 4.34997 20.2496 4.34998L18.7525 4.34998L18.75 4.34998L18.7475 4.34998L16.65 4.34998V3.74998C16.65 3.11346 16.3971 2.50301 15.947 2.05292C15.4969 1.60283 14.8865 1.34998 14.25 1.34998H9.74998ZM14.85 4.34999V3.74998C14.85 3.59085 14.7868 3.43823 14.6742 3.32571C14.5617 3.21319 14.4091 3.14998 14.25 3.14998H9.74998C9.59085 3.14998 9.43823 3.21319 9.32571 3.32571C9.21319 3.43823 9.14998 3.59085 9.14998 3.74998V4.35L14.85 4.34999ZM6.14998 19.35V6.15001L17.85 6.14998V19.35H6.14998ZM9.74998 8.84998C10.247 8.84998 10.65 9.25292 10.65 9.74998V15.75C10.65 16.247 10.247 16.65 9.74998 16.65C9.25292 16.65 8.84998 16.247 8.84998 15.75V9.74998C8.84998 9.25292 9.25292 8.84998 9.74998 8.84998ZM15.15 9.74998C15.15 9.25292 14.747 8.84998 14.25 8.84998C13.7529 8.84998 13.35 9.25292 13.35 9.74998V15.75C13.35 16.247 13.7529 16.65 14.25 16.65C14.747 16.65 15.15 16.247 15.15 15.75V9.74998Z" fill="#252525"/>
</svg>
