<svg width="24" height="24" viewBox="0 0 24 24" fill="none" xmlns="http://www.w3.org/2000/svg">
<path fill-rule="evenodd" clip-rule="evenodd" d="M12 3.89998C7.52647 3.89998 3.89998 7.52647 3.89998 12C3.89998 13.9972 4.62279 15.8255 5.82108 17.2377C6.40702 16.4358 7.14585 15.7524 7.99913 15.2291C8.29903 15.0452 8.61015 14.8828 8.93013 14.7427C7.96133 13.8905 7.34998 12.6416 7.34998 11.25C7.34998 8.68185 9.43185 6.59998 12 6.59998C14.5681 6.59998 16.65 8.68185 16.65 11.25C16.65 12.6416 16.0386 13.8905 15.0698 14.7427C15.3898 14.8828 15.7009 15.0452 16.0008 15.2291C16.8541 15.7524 17.5929 16.4358 18.1789 17.2377C19.3772 15.8255 20.1 13.9972 20.1 12C20.1 7.52647 16.4735 3.89998 12 3.89998ZM18.632 19.3503C20.6388 17.5385 21.9 14.9165 21.9 12C21.9 6.53236 17.4676 2.09998 12 2.09998C6.53236 2.09998 2.09998 6.53236 2.09998 12C2.09998 14.9155 3.36026 17.5366 5.36577 19.3484C5.37409 19.3562 5.38258 19.3638 5.39124 19.3713C7.14378 20.9436 9.46019 21.9 12 21.9C14.5408 21.9 16.8581 20.9428 18.6109 19.3694C18.618 19.3631 18.6251 19.3568 18.632 19.3503ZM16.855 18.4843C16.3883 17.791 15.7769 17.2033 15.0597 16.7635C14.139 16.1988 13.08 15.9 11.9999 15.9C10.9199 15.9 9.86088 16.1989 8.94017 16.7635C8.22306 17.2033 7.61163 17.791 7.14492 18.4843C8.49785 19.4989 10.1787 20.1 12 20.1C13.8212 20.1 15.5021 19.4989 16.855 18.4843ZM12 14.1C13.574 14.1 14.85 12.824 14.85 11.25C14.85 9.67596 13.574 8.39998 12 8.39998C10.426 8.39998 9.14998 9.67596 9.14998 11.25C9.14998 12.824 10.426 14.1 12 14.1Z" fill="#252525"/>
</svg>
