<svg width="24" height="24" viewBox="0 0 24 24" fill="none" xmlns="http://www.w3.org/2000/svg">
<path fill-rule="evenodd" clip-rule="evenodd" d="M5.39998 6.99998C5.39998 5.01175 7.01175 3.39998 8.99998 3.39998C10.9882 3.39998 12.6 5.01175 12.6 6.99998C12.6 8.9882 10.9882 10.6 8.99998 10.6C7.01175 10.6 5.39998 8.9882 5.39998 6.99998ZM8.99998 1.59998C6.01764 1.59998 3.59998 4.01764 3.59998 6.99998C3.59998 9.98231 6.01764 12.4 8.99998 12.4C11.9823 12.4 14.4 9.98231 14.4 6.99998C14.4 4.01764 11.9823 1.59998 8.99998 1.59998ZM15 1.59998C14.5029 1.59998 14.1 2.00292 14.1 2.49998C14.1 2.99703 14.5029 3.39998 15 3.39998C16.9882 3.39998 18.6 5.01175 18.6 6.99998C18.6 8.9882 16.9882 10.6 15 10.6C14.5029 10.6 14.1 11.0029 14.1 11.5C14.1 11.997 14.5029 12.4 15 12.4C17.9823 12.4 20.4 9.98231 20.4 6.99998C20.4 4.01764 17.9823 1.59998 15 1.59998ZM4.49047 16.5671C3.41006 17.2693 2.89998 18.1445 2.89998 19C2.89998 19.0613 2.93089 19.223 3.17473 19.4723C3.41626 19.7193 3.81077 19.9904 4.3693 20.2417C5.48248 20.7427 7.10245 21.1 8.99998 21.1C10.8975 21.1 12.5175 20.7427 13.6306 20.2417C14.1892 19.9904 14.5837 19.7193 14.8252 19.4723C15.0691 19.223 15.1 19.0613 15.1 19C15.1 18.1445 14.5899 17.2693 13.5095 16.5671C12.4314 15.8663 10.8596 15.4 8.99998 15.4C7.14032 15.4 5.56853 15.8663 4.49047 16.5671ZM3.50949 15.0579C4.93142 14.1336 6.85963 13.6 8.99998 13.6C11.1403 13.6 13.0685 14.1336 14.4905 15.0579C15.9101 15.9806 16.9 17.3555 16.9 19C16.9 19.6886 16.5559 20.277 16.1122 20.7307C15.6663 21.1869 15.0608 21.572 14.3693 21.8832C12.9825 22.5073 11.1024 22.9 8.99998 22.9C6.8975 22.9 5.01747 22.5073 3.63065 21.8832C2.93918 21.572 2.33369 21.1869 1.88772 20.7307C1.44406 20.277 1.09998 19.6886 1.09998 19C1.09998 17.3555 2.08989 15.9806 3.50949 15.0579ZM17.7337 14.0193C17.2537 13.8902 16.76 14.1747 16.6309 14.6547C16.5018 15.1347 16.7863 15.6284 17.2663 15.7575C18.4656 16.08 19.4555 16.592 20.1275 17.1887C20.7987 17.7846 21.1 18.4106 21.1 19C21.1 19.0077 21.0977 19.0889 20.9664 19.2491C20.8341 19.4105 20.607 19.6051 20.2637 19.81C19.5781 20.2193 18.5592 20.593 17.3283 20.8321C16.8404 20.9269 16.5217 21.3993 16.6165 21.8873C16.7114 22.3752 17.1838 22.6939 17.6717 22.5991C19.0409 22.333 20.272 21.9014 21.1864 21.3556C21.6431 21.0829 22.0535 20.7624 22.3586 20.39C22.6649 20.0163 22.9 19.5449 22.9 19C22.9 17.7475 22.2514 16.6673 21.3226 15.8426C20.3946 15.0188 19.1345 14.3959 17.7337 14.0193Z" fill="#252525"/>
</svg>
