<svg width="24" height="24" viewBox="0 0 24 24" fill="none" xmlns="http://www.w3.org/2000/svg">
<path d="M4.21799 2.09202C4 2.51984 4 3.0799 4 4.2V10.8C4 11.9201 4 12.4802 4.21799 12.908C4.40973 13.2843 4.71569 13.5903 5.09202 13.782C5.51984 14 6.0799 14 7.2 14H16.8C17.9201 14 18.4802 14 18.908 13.782C19.2843 13.5903 19.5903 13.2843 19.782 12.908C20 12.4802 20 11.9201 20 10.8V8H16.2C15.0799 8 14.5198 8 14.092 7.78201C13.7157 7.59027 13.4097 7.28431 13.218 6.90798C13 6.48016 13 5.9201 13 4.8V1H7.2C6.0799 1 5.51984 1 5.09202 1.21799C4.71569 1.40973 4.40973 1.71569 4.21799 2.09202Z" fill="#1E9B20"/>
<path opacity="0.5" d="M13 4.8V1L20 8H16.2C15.0799 8 14.5198 8 14.092 7.78201C13.7157 7.59027 13.4097 7.28431 13.218 6.90798C13 6.48016 13 5.9201 13 4.8Z" fill="#E0E0E0"/>
<path d="M6.83201 20.3759L5.80801 21.8159C5.77601 21.8639 5.73868 21.9066 5.69601 21.9439C5.65868 21.9813 5.58668 21.9999 5.48001 21.9999H4.26401C4.21601 21.9999 4.17335 21.9839 4.13601 21.9519C4.10401 21.9146 4.08801 21.8719 4.08801 21.8239C4.08801 21.8133 4.08801 21.8026 4.08801 21.7919C4.09335 21.7759 4.10135 21.7573 4.11201 21.7359L5.96001 19.1519L4.19201 16.6639C4.17601 16.6319 4.16801 16.6026 4.16801 16.5759C4.16801 16.5279 4.18401 16.4879 4.21601 16.4559C4.25335 16.4186 4.29601 16.3999 4.34401 16.3999H5.55201C5.65868 16.3999 5.73601 16.4266 5.78401 16.4799C5.83201 16.5333 5.86668 16.5733 5.88801 16.5999L6.85601 17.9519L7.79201 16.5999C7.81335 16.5733 7.84801 16.5333 7.89601 16.4799C7.94401 16.4266 8.02135 16.3999 8.12801 16.3999H9.35201C9.40001 16.3999 9.44001 16.4186 9.47201 16.4559C9.50935 16.4879 9.52801 16.5279 9.52801 16.5759C9.52801 16.6026 9.52001 16.6319 9.50401 16.6639L7.72801 19.1839L9.56001 21.7359C9.57068 21.7573 9.57601 21.7759 9.57601 21.7919C9.58135 21.8026 9.58401 21.8133 9.58401 21.8239C9.58401 21.8719 9.56535 21.9146 9.52801 21.9519C9.49601 21.9839 9.45601 21.9999 9.40801 21.9999H8.19201C8.08535 21.9999 8.01068 21.9813 7.96801 21.9439C7.93068 21.9066 7.89601 21.8639 7.86401 21.8159L6.83201 20.3759Z" fill="#1E9B20"/>
<path d="M12.2688 16.3199C12.6101 16.3199 12.9221 16.3706 13.2048 16.4719C13.4928 16.5679 13.7408 16.6933 13.9488 16.8479C14.1568 17.0026 14.3194 17.1733 14.4368 17.3599C14.5541 17.5466 14.6154 17.7253 14.6208 17.8959C14.6208 17.9439 14.6021 17.9866 14.5648 18.0239C14.5328 18.0559 14.4954 18.0719 14.4528 18.0719H13.4048C13.3301 18.0719 13.2688 18.0613 13.2208 18.0399C13.1781 18.0186 13.1328 17.9866 13.0848 17.9439C13.0688 17.9279 13.0421 17.9013 13.0048 17.8639C12.9728 17.8266 12.9248 17.7893 12.8608 17.7519C12.7968 17.7093 12.7168 17.6746 12.6208 17.6479C12.5248 17.6159 12.4074 17.5999 12.2688 17.5999C12.1674 17.5999 12.0688 17.6079 11.9728 17.6239C11.8821 17.6346 11.7994 17.6559 11.7248 17.6879C11.6554 17.7146 11.5968 17.7546 11.5488 17.8079C11.5061 17.8613 11.4848 17.9279 11.4848 18.0079C11.4848 18.0879 11.5088 18.1546 11.5568 18.2079C11.6101 18.2613 11.6954 18.3119 11.8128 18.3599C11.9354 18.4026 12.0954 18.4453 12.2928 18.4879C12.4901 18.5306 12.7354 18.5813 13.0288 18.6399C13.3221 18.6986 13.5781 18.7733 13.7968 18.8639C14.0154 18.9546 14.1968 19.0693 14.3408 19.2079C14.4901 19.3413 14.5994 19.5013 14.6688 19.6879C14.7434 19.8693 14.7808 20.0853 14.7808 20.3359C14.7808 20.6079 14.7194 20.8506 14.5968 21.0639C14.4741 21.2773 14.3008 21.4613 14.0768 21.6159C13.8581 21.7653 13.5968 21.8799 13.2928 21.9599C12.9941 22.0399 12.6661 22.0799 12.3088 22.0799C11.9461 22.0799 11.6154 22.0319 11.3168 21.9359C11.0181 21.8399 10.7594 21.7146 10.5408 21.5599C10.3274 21.3999 10.1594 21.2213 10.0368 21.0239C9.9141 20.8266 9.8501 20.6266 9.84476 20.4239C9.84476 20.3759 9.86076 20.3359 9.89276 20.3039C9.9301 20.2666 9.9701 20.2479 10.0128 20.2479H11.0608C11.1354 20.2479 11.1941 20.2586 11.2368 20.2799C11.2794 20.2959 11.3221 20.3226 11.3648 20.3599C11.3861 20.3813 11.4181 20.4159 11.4608 20.4639C11.5034 20.5119 11.5594 20.5626 11.6288 20.6159C11.7034 20.6639 11.7941 20.7066 11.9008 20.7439C12.0128 20.7813 12.1488 20.7999 12.3088 20.7999C12.5914 20.7999 12.8261 20.7706 13.0128 20.7119C13.2048 20.6479 13.3008 20.5359 13.3008 20.3759C13.3008 20.2959 13.2661 20.2293 13.1968 20.1759C13.1274 20.1226 13.0234 20.0746 12.8848 20.0319C12.7461 19.9839 12.5674 19.9386 12.3488 19.8959C12.1354 19.8533 11.8821 19.7999 11.5888 19.7359C11.0394 19.6186 10.6368 19.4239 10.3808 19.1519C10.1301 18.8746 10.0048 18.5066 10.0048 18.0479C10.0048 17.8186 10.0554 17.5999 10.1568 17.3919C10.2634 17.1839 10.4154 16.9999 10.6128 16.8399C10.8101 16.6799 11.0474 16.5546 11.3248 16.4639C11.6074 16.3679 11.9221 16.3199 12.2688 16.3199Z" fill="#1E9B20"/>
<path d="M19.6594 20.7199C19.7181 20.7199 19.7687 20.7413 19.8114 20.7839C19.8541 20.8266 19.8754 20.8773 19.8754 20.9359V21.7839C19.8754 21.8426 19.8541 21.8933 19.8114 21.9359C19.7687 21.9786 19.7181 21.9999 19.6594 21.9999H15.9554C15.8967 21.9999 15.8461 21.9786 15.8034 21.9359C15.7607 21.8933 15.7394 21.8426 15.7394 21.7839V16.6159C15.7394 16.5573 15.7607 16.5066 15.8034 16.4639C15.8461 16.4213 15.8967 16.3999 15.9554 16.3999H17.0034C17.0621 16.3999 17.1127 16.4213 17.1554 16.4639C17.1981 16.5066 17.2194 16.5573 17.2194 16.6159V20.7199H19.6594Z" fill="#1E9B20"/>
</svg>
