<svg width="24" height="24" viewBox="0 0 24 24" fill="none" xmlns="http://www.w3.org/2000/svg">
<path d="M4.21799 2.09202C4 2.51984 4 3.0799 4 4.2V10.8C4 11.9201 4 12.4802 4.21799 12.908C4.40973 13.2843 4.71569 13.5903 5.09202 13.782C5.51984 14 6.0799 14 7.2 14H16.8C17.9201 14 18.4802 14 18.908 13.782C19.2843 13.5903 19.5903 13.2843 19.782 12.908C20 12.4802 20 11.9201 20 10.8V8H16.2C15.0799 8 14.5198 8 14.092 7.78201C13.7157 7.59027 13.4097 7.28431 13.218 6.90798C13 6.48016 13 5.9201 13 4.8V1H7.2C6.0799 1 5.51984 1 5.09202 1.21799C4.71569 1.40973 4.40973 1.71569 4.21799 2.09202Z" fill="#2471E2"/>
<path opacity="0.5" d="M13 4.8V1L20 8H16.2C15.0799 8 14.5198 8 14.092 7.78201C13.7157 7.59027 13.4097 7.28431 13.218 6.90798C13 6.48016 13 5.9201 13 4.8Z" fill="#E0E0E0"/>
<path d="M6.896 16.3999C7.264 16.3999 7.6 16.4559 7.904 16.5679C8.208 16.6746 8.46933 16.8266 8.688 17.0239C8.912 17.2213 9.08533 17.4586 9.208 17.7359C9.336 18.0079 9.408 18.3066 9.424 18.6319C9.42933 18.7439 9.432 18.8479 9.432 18.9439C9.432 19.0346 9.432 19.1226 9.432 19.2079C9.432 19.2933 9.432 19.3813 9.432 19.4719C9.432 19.5626 9.42933 19.6613 9.424 19.7679C9.408 20.0986 9.33866 20.3999 9.216 20.6719C9.09333 20.9439 8.92266 21.1786 8.704 21.3759C8.49066 21.5733 8.23466 21.7279 7.936 21.8399C7.63733 21.9466 7.304 21.9999 6.936 21.9999H4.776C4.71733 21.9999 4.66666 21.9786 4.624 21.9359C4.58133 21.8933 4.56 21.8426 4.56 21.7839V16.6159C4.56 16.5573 4.58133 16.5066 4.624 16.4639C4.66666 16.4213 4.71733 16.3999 4.776 16.3999H6.896ZM7.944 18.5999C7.912 17.9866 7.54933 17.6799 6.856 17.6799H6.04V20.7199H6.896C7.568 20.7199 7.91733 20.4133 7.944 19.7999C7.94933 19.6879 7.952 19.5839 7.952 19.4879C7.952 19.3866 7.952 19.2906 7.952 19.1999C7.952 19.1039 7.952 19.0079 7.952 18.9119C7.952 18.8159 7.94933 18.7119 7.944 18.5999Z" fill="#2471E2"/>
<path d="M10.1572 18.4879C10.1732 18.1893 10.2372 17.9093 10.3492 17.6479C10.4666 17.3813 10.6292 17.1519 10.8372 16.9599C11.0506 16.7626 11.3066 16.6079 11.6052 16.4959C11.9092 16.3786 12.2586 16.3199 12.6532 16.3199C13.0426 16.3199 13.3892 16.3786 13.6932 16.4959C13.9972 16.6079 14.2532 16.7626 14.4612 16.9599C14.6746 17.1519 14.8372 17.3813 14.9492 17.6479C15.0666 17.9093 15.1332 18.1893 15.1492 18.4879C15.1599 18.7173 15.1652 18.9573 15.1652 19.2079C15.1652 19.4586 15.1599 19.6933 15.1492 19.9119C15.1332 20.2106 15.0666 20.4933 14.9492 20.7599C14.8372 21.0213 14.6746 21.2506 14.4612 21.4479C14.2532 21.6453 13.9972 21.7999 13.6932 21.9119C13.3892 22.0239 13.0426 22.0799 12.6532 22.0799C12.2586 22.0799 11.9092 22.0239 11.6052 21.9119C11.3066 21.7999 11.0506 21.6453 10.8372 21.4479C10.6292 21.2506 10.4666 21.0213 10.3492 20.7599C10.2372 20.4933 10.1732 20.2106 10.1572 19.9119C10.1466 19.6933 10.1412 19.4586 10.1412 19.2079C10.1412 18.9573 10.1466 18.7173 10.1572 18.4879ZM13.6692 19.8719C13.6746 19.7759 13.6799 19.6693 13.6852 19.5519C13.6906 19.4346 13.6932 19.3146 13.6932 19.1919C13.6932 19.0693 13.6906 18.9519 13.6852 18.8399C13.6799 18.7226 13.6746 18.6186 13.6692 18.5279C13.6586 18.3946 13.6292 18.2719 13.5812 18.1599C13.5386 18.0479 13.4746 17.9519 13.3892 17.8719C13.3092 17.7866 13.2079 17.7199 13.0852 17.6719C12.9626 17.6239 12.8186 17.5999 12.6532 17.5999C12.4879 17.5999 12.3439 17.6239 12.2212 17.6719C12.0986 17.7199 11.9946 17.7866 11.9092 17.8719C11.8292 17.9519 11.7652 18.0479 11.7172 18.1599C11.6746 18.2719 11.6479 18.3946 11.6372 18.5279C11.6266 18.6186 11.6186 18.7226 11.6132 18.8399C11.6132 18.9519 11.6132 19.0693 11.6132 19.1919C11.6132 19.3146 11.6132 19.4346 11.6132 19.5519C11.6186 19.6693 11.6266 19.7759 11.6372 19.8719C11.6586 20.1386 11.7492 20.3599 11.9092 20.5359C12.0746 20.7119 12.3226 20.7999 12.6532 20.7999C12.9839 20.7999 13.2292 20.7119 13.3892 20.5359C13.5492 20.3599 13.6426 20.1386 13.6692 19.8719Z" fill="#2471E2"/>
<path d="M17.3714 18.5279C17.3661 18.5973 17.3608 18.6933 17.3554 18.8159C17.3554 18.9386 17.3554 19.0666 17.3554 19.1999C17.3554 19.3279 17.3554 19.4559 17.3554 19.5839C17.3608 19.7066 17.3661 19.8026 17.3714 19.8719C17.3821 19.9946 17.4061 20.1119 17.4434 20.2239C17.4808 20.3359 17.5394 20.4346 17.6194 20.5199C17.6994 20.6053 17.8008 20.6746 17.9234 20.7279C18.0461 20.7759 18.1981 20.7999 18.3794 20.7999C18.5608 20.7999 18.7101 20.7786 18.8274 20.7359C18.9448 20.6933 19.0408 20.6426 19.1154 20.5839C19.1901 20.5199 19.2461 20.4506 19.2834 20.3759C19.3261 20.3013 19.3581 20.2319 19.3794 20.1679C19.4061 20.0826 19.4354 20.0239 19.4674 19.9919C19.4994 19.9546 19.5608 19.9359 19.6514 19.9359H20.6994C20.7474 19.9359 20.7874 19.9546 20.8194 19.9919C20.8568 20.0239 20.8754 20.0639 20.8754 20.1119C20.8701 20.3839 20.8034 20.6399 20.6754 20.8799C20.5474 21.1199 20.3714 21.3279 20.1474 21.5039C19.9234 21.6799 19.6594 21.8213 19.3554 21.9279C19.0568 22.0293 18.7314 22.0799 18.3794 22.0799C17.9954 22.0799 17.6514 22.0239 17.3474 21.9119C17.0488 21.7946 16.7928 21.6373 16.5794 21.4399C16.3661 21.2426 16.2008 21.0133 16.0834 20.7519C15.9714 20.4853 15.9074 20.2053 15.8914 19.9119C15.8808 19.6933 15.8754 19.4586 15.8754 19.2079C15.8754 18.9573 15.8808 18.7173 15.8914 18.4879C15.9021 18.1946 15.9661 17.9173 16.0834 17.6559C16.2008 17.3893 16.3634 17.1573 16.5714 16.9599C16.7848 16.7626 17.0434 16.6079 17.3474 16.4959C17.6514 16.3786 17.9954 16.3199 18.3794 16.3199C18.7314 16.3199 19.0568 16.3733 19.3554 16.4799C19.6594 16.5813 19.9234 16.7199 20.1474 16.8959C20.3714 17.0719 20.5474 17.2799 20.6754 17.5199C20.8034 17.7599 20.8701 18.0159 20.8754 18.2879C20.8754 18.3359 20.8568 18.3786 20.8194 18.4159C20.7874 18.4479 20.7474 18.4639 20.6994 18.4639H19.6514C19.5608 18.4639 19.4994 18.4479 19.4674 18.4159C19.4354 18.3786 19.4061 18.3173 19.3794 18.2319C19.3581 18.1679 19.3261 18.0986 19.2834 18.0239C19.2461 17.9493 19.1901 17.8826 19.1154 17.8239C19.0408 17.7599 18.9448 17.7066 18.8274 17.6639C18.7101 17.6213 18.5608 17.5999 18.3794 17.5999C18.1981 17.5999 18.0461 17.6266 17.9234 17.6799C17.8008 17.7279 17.6994 17.7946 17.6194 17.8799C17.5394 17.9653 17.4808 18.0639 17.4434 18.1759C17.4061 18.2879 17.3821 18.4053 17.3714 18.5279Z" fill="#2471E2"/>
</svg>
