<svg width="20" height="22" viewBox="0 0 20 22" fill="none" xmlns="http://www.w3.org/2000/svg">
<path d="M17.676 3.74621L17.8261 3.48634C18.3978 2.49612 18.0585 1.22993 17.0683 0.658228C16.0781 0.086524 14.8119 0.425799 14.2402 1.41602L14.0901 1.67589C11.0526 0.950771 7.77597 2.2607 6.13471 5.10345L3.09392 10.3702L2.19744 9.85267C1.70233 9.56682 1.06924 9.73645 0.783388 10.2316C0.497536 10.7267 0.667173 11.3598 1.16228 11.6456L15.5059 19.9269C16.001 20.2128 16.6341 20.0431 16.92 19.548C17.2058 19.0529 17.0362 18.4198 16.5411 18.134L15.6446 17.6164L18.6854 12.3496C20.3266 9.50684 19.8228 6.01425 17.676 3.74621Z" fill="#252525"/>
<path d="M4.28724 15.1949C4.76105 15.2737 5.08192 15.7201 5.0065 16.1937L5.00568 16.1996C5.00455 16.2081 5.0025 16.2246 5.00019 16.2485C4.99558 16.2963 4.99007 16.3724 4.98897 16.4702C4.98676 16.6675 5.00262 16.9429 5.07401 17.2484C5.2136 17.8458 5.5607 18.5554 6.44169 19.064C7.32268 19.5726 8.11073 19.5185 8.69787 19.3407C8.99814 19.2497 9.2446 19.1257 9.41438 19.0252C9.49853 18.9753 9.56167 18.9325 9.60076 18.9046C9.62024 18.8907 9.63355 18.8806 9.6403 18.8754L9.64502 18.8718C10.0174 18.5697 10.5645 18.6243 10.8696 18.9953C11.1761 19.3678 11.1226 19.9182 10.75 20.2247L10.7487 20.2258L10.7471 20.2271L10.7434 20.2301L10.7337 20.2378L10.7057 20.2597C10.6832 20.2771 10.6531 20.2997 10.6156 20.3264C10.5408 20.3798 10.4361 20.4503 10.3047 20.5281C10.0434 20.6829 9.66778 20.8721 9.20415 21.0125C8.26352 21.2974 6.95649 21.3783 5.56827 20.5768C4.18005 19.7753 3.59663 18.6029 3.373 17.6459C3.26277 17.1742 3.23884 16.7543 3.24225 16.4506C3.24396 16.2979 3.25261 16.172 3.26145 16.0805C3.26588 16.0347 3.27037 15.9972 3.27412 15.9691L3.27909 15.9339L3.28097 15.9217L3.28173 15.917L3.28205 15.915C3.28205 15.915 3.28235 15.9132 4.14393 16.0565L3.28235 15.9132C3.3615 15.4374 3.8114 15.1158 4.28724 15.1949Z" fill="#252525"/>
</svg>
