<svg width="24" height="24" viewBox="0 0 24 24" fill="none" xmlns="http://www.w3.org/2000/svg">
<path fill-rule="evenodd" clip-rule="evenodd" d="M22.5 19.4984H21.7495V9.74841C21.749 9.35073 21.5908 8.96946 21.3096 8.68826C21.0284 8.40705 20.6471 8.24887 20.2495 8.24841H14.2495V3.74841C14.249 3.35073 14.0908 2.96946 13.8096 2.68826C13.5284 2.40705 13.1471 2.24887 12.7495 2.24841H3.74945C3.35177 2.24887 2.9705 2.40705 2.68929 2.68826C2.40809 2.96946 2.24991 3.35073 2.24945 3.74841V19.4984H1.5C1.30109 19.4984 1.11032 19.5774 0.96967 19.7181C0.829018 19.8587 0.75 20.0495 0.75 20.2484C0.75 20.4473 0.829018 20.6381 0.96967 20.7787C1.11032 20.9194 1.30109 20.9984 1.5 20.9984H22.5C22.6989 20.9984 22.8897 20.9194 23.0303 20.7787C23.171 20.6381 23.25 20.4473 23.25 20.2484C23.25 20.0495 23.171 19.8587 23.0303 19.7181C22.8897 19.5774 22.6989 19.4984 22.5 19.4984ZM11.2495 12.7484C11.2494 12.9473 11.1704 13.1381 11.0298 13.2787C10.8891 13.4194 10.6984 13.4984 10.4995 13.4984H7.49945C7.30054 13.4984 7.10977 13.4194 6.96912 13.2787C6.82847 13.1381 6.74945 12.9473 6.74945 12.7484C6.74945 12.5495 6.82847 12.3587 6.96912 12.2181C7.10977 12.0774 7.30054 11.9984 7.49945 11.9984H10.4995C10.6984 11.9984 10.8891 12.0774 11.0298 12.2181C11.1704 12.3587 11.2494 12.5495 11.2495 12.7484ZM5.99945 5.99841H8.99945C9.19836 5.99841 9.38913 6.07743 9.52978 6.21808C9.67043 6.35874 9.74945 6.5495 9.74945 6.74841C9.74945 6.94733 9.67043 7.13809 9.52978 7.27874C9.38913 7.41939 9.19836 7.49841 8.99945 7.49841H5.99945C5.80054 7.49841 5.60977 7.41939 5.46912 7.27874C5.32847 7.13809 5.24945 6.94733 5.24945 6.74841C5.24945 6.5495 5.32847 6.35874 5.46912 6.21808C5.60977 6.07743 5.80054 5.99841 5.99945 5.99841ZM8.99945 15.7484C9.19836 15.7484 9.38913 15.8274 9.52978 15.9681C9.67043 16.1087 9.74945 16.2995 9.74945 16.4984C9.74945 16.6973 9.67043 16.8881 9.52978 17.0287C9.38913 17.1694 9.19836 17.2484 8.99945 17.2484H5.99945C5.80054 17.2484 5.60977 17.1694 5.46912 17.0287C5.32847 16.8881 5.24945 16.6973 5.24945 16.4984C5.24945 16.2995 5.32847 16.1087 5.46912 15.9681C5.60977 15.8274 5.80054 15.7484 5.99945 15.7484H8.99945ZM14.2495 9.74841H20.2495V19.4984H14.2495V9.74841ZM17.9995 15.7484H16.4995C16.3005 15.7484 16.1098 15.8274 15.9691 15.9681C15.8285 16.1087 15.7495 16.2995 15.7495 16.4984C15.7495 16.6973 15.8285 16.8881 15.9691 17.0287C16.1098 17.1694 16.3005 17.2484 16.4995 17.2484H17.9995C18.1984 17.2484 18.3891 17.1694 18.5298 17.0287C18.6704 16.8881 18.7495 16.6973 18.7495 16.4984C18.7495 16.2995 18.6704 16.1087 18.5298 15.9681C18.3891 15.8274 18.1984 15.7484 17.9995 15.7484ZM17.9995 13.4984H16.4995C16.3005 13.4984 16.1098 13.4194 15.9691 13.2787C15.8285 13.1381 15.7495 12.9473 15.7495 12.7484C15.7495 12.5495 15.8285 12.3587 15.9691 12.2181C16.1098 12.0774 16.3005 11.9984 16.4995 11.9984H17.9995C18.1984 11.9984 18.3891 12.0774 18.5298 12.2181C18.6704 12.3587 18.7495 12.5495 18.7495 12.7484C18.7495 12.9473 18.6704 13.1381 18.5298 13.2787C18.3891 13.4194 18.1984 13.4984 17.9995 13.4984Z" fill="#252525"/>
</svg>
