<svg width="24" height="24" viewBox="0 0 24 24" fill="none" xmlns="http://www.w3.org/2000/svg">
<path d="M12.0001 2.24939C10.3066 2.24989 8.64244 2.69136 7.17135 3.53034C5.70026 4.36933 4.47299 5.57691 3.61033 7.03424C2.74767 8.49157 2.27936 10.1484 2.25147 11.8417C2.22359 13.535 2.63711 15.2063 3.45132 16.6913L2.64932 19.495C2.57563 19.7522 2.57212 20.0245 2.63916 20.2836C2.70619 20.5426 2.84133 20.779 3.03055 20.9683C3.21976 21.1575 3.45617 21.2926 3.71523 21.3596C3.97429 21.4267 4.24657 21.4232 4.50381 21.3495L7.30826 20.5497C8.61166 21.2648 10.0613 21.6725 11.5464 21.7414C13.0316 21.8104 14.5128 21.5389 15.8769 20.9477C17.2409 20.3564 18.4518 19.4611 19.4168 18.3301C20.3818 17.1992 21.0754 15.8625 21.4447 14.4224C21.8139 12.9823 21.8489 11.4768 21.5471 10.021C21.2453 8.56529 20.6146 7.19783 19.7032 6.0232C18.7919 4.84856 17.624 3.89787 16.2889 3.2438C14.9538 2.58972 13.4869 2.24958 12.0001 2.24939ZM15.0001 14.2494H9.00015C8.80124 14.2494 8.61047 14.1704 8.46982 14.0297C8.32917 13.8891 8.25015 13.6983 8.25015 13.4994C8.25015 13.3005 8.32917 13.1097 8.46982 12.9691C8.61047 12.8284 8.80124 12.7494 9.00015 12.7494H15.0001C15.1991 12.7494 15.3898 12.8284 15.5305 12.9691C15.6711 13.1097 15.7501 13.3005 15.7501 13.4994C15.7501 13.6983 15.6711 13.8891 15.5305 14.0297C15.3898 14.1704 15.1991 14.2494 15.0001 14.2494ZM15.0001 11.2494H9.00015C8.80124 11.2494 8.61047 11.1704 8.46982 11.0297C8.32917 10.8891 8.25015 10.6983 8.25015 10.4994C8.25015 10.3005 8.32917 10.1097 8.46982 9.96906C8.61047 9.82841 8.80124 9.74939 9.00015 9.74939H15.0001C15.1991 9.74939 15.3898 9.82841 15.5305 9.96906C15.6711 10.1097 15.7501 10.3005 15.7501 10.4994C15.7501 10.6983 15.6711 10.8891 15.5305 11.0297C15.3898 11.1704 15.1991 11.2494 15.0001 11.2494Z" fill="#252525"/>
</svg>
