<svg width="24" height="24" viewBox="0 0 24 24" fill="none" xmlns="http://www.w3.org/2000/svg">
<path d="M4.21799 2.09202C4 2.51984 4 3.0799 4 4.2V10.8C4 11.9201 4 12.4802 4.21799 12.908C4.40973 13.2843 4.71569 13.5903 5.09202 13.782C5.51984 14 6.0799 14 7.2 14H16.8C17.9201 14 18.4802 14 18.908 13.782C19.2843 13.5903 19.5903 13.2843 19.782 12.908C20 12.4802 20 11.9201 20 10.8V8H16.2C15.0799 8 14.5198 8 14.092 7.78201C13.7157 7.59027 13.4097 7.28431 13.218 6.90798C13 6.48016 13 5.9201 13 4.8V1H7.2C6.0799 1 5.51984 1 5.09202 1.21799C4.71569 1.40973 4.40973 1.71569 4.21799 2.09202Z" fill="#FF2D5F"/>
<path opacity="0.5" d="M13 4.8V1L20 8H16.2C15.0799 8 14.5198 8 14.092 7.78201C13.7157 7.59027 13.4097 7.28431 13.218 6.90798C13 6.48016 13 5.9201 13 4.8Z" fill="#616161"/>
<path d="M7.064 16.4C7.40533 16.4 7.712 16.44 7.984 16.52C8.256 16.5947 8.488 16.712 8.68 16.872C8.872 17.0267 9.01866 17.2214 9.12 17.456C9.22666 17.6907 9.28 17.9627 9.28 18.272C9.28 18.5867 9.22666 18.8614 9.12 19.096C9.01866 19.3307 8.872 19.5254 8.68 19.68C8.488 19.8347 8.256 19.952 7.984 20.032C7.712 20.112 7.40533 20.152 7.064 20.152H6.04V21.784C6.04 21.8427 6.01866 21.8934 5.976 21.936C5.93333 21.9787 5.88266 22 5.824 22H4.776C4.71733 22 4.66666 21.9787 4.624 21.936C4.58133 21.8934 4.56 21.8427 4.56 21.784V16.616C4.56 16.5574 4.58133 16.5067 4.624 16.464C4.66666 16.4214 4.71733 16.4 4.776 16.4H7.064ZM6.04 18.904H7.024C7.248 18.904 7.432 18.856 7.576 18.76C7.72533 18.6587 7.8 18.496 7.8 18.272C7.8 18.048 7.72533 17.888 7.576 17.792C7.432 17.6907 7.248 17.64 7.024 17.64H6.04V18.904Z" fill="#FF2D5F"/>
<path d="M12.3404 16.4C12.7084 16.4 13.0444 16.456 13.3484 16.568C13.6524 16.6747 13.9137 16.8267 14.1324 17.024C14.3564 17.2214 14.5297 17.4587 14.6524 17.736C14.7804 18.008 14.8524 18.3067 14.8684 18.632C14.8737 18.744 14.8764 18.848 14.8764 18.944C14.8764 19.0347 14.8764 19.1227 14.8764 19.208C14.8764 19.2934 14.8764 19.3814 14.8764 19.472C14.8764 19.5627 14.8737 19.6614 14.8684 19.768C14.8524 20.0987 14.783 20.4 14.6604 20.672C14.5377 20.944 14.367 21.1787 14.1484 21.376C13.935 21.5734 13.679 21.728 13.3804 21.84C13.0817 21.9467 12.7484 22 12.3804 22H10.2204C10.1617 22 10.111 21.9787 10.0684 21.936C10.0257 21.8934 10.0044 21.8427 10.0044 21.784V16.616C10.0044 16.5574 10.0257 16.5067 10.0684 16.464C10.111 16.4214 10.1617 16.4 10.2204 16.4H12.3404ZM13.3884 18.6C13.3564 17.9867 12.9937 17.68 12.3004 17.68H11.4844V20.72H12.3404C13.0124 20.72 13.3617 20.4134 13.3884 19.8C13.3937 19.688 13.3964 19.584 13.3964 19.488C13.3964 19.3867 13.3964 19.2907 13.3964 19.2C13.3964 19.104 13.3964 19.008 13.3964 18.912C13.3964 18.816 13.3937 18.712 13.3884 18.6Z" fill="#FF2D5F"/>
<path d="M19.6176 16.4C19.6763 16.4 19.727 16.4214 19.7696 16.464C19.8123 16.5067 19.8336 16.5574 19.8336 16.616V17.464C19.8336 17.5227 19.8123 17.5734 19.7696 17.616C19.727 17.6587 19.6763 17.68 19.6176 17.68H17.2256V18.776H19.4576C19.5163 18.776 19.567 18.7974 19.6096 18.84C19.6523 18.8827 19.6736 18.9334 19.6736 18.992V19.84C19.6736 19.8987 19.6523 19.9494 19.6096 19.992C19.567 20.0347 19.5163 20.056 19.4576 20.056H17.2256V21.784C17.2256 21.8427 17.2043 21.8934 17.1616 21.936C17.119 21.9787 17.0683 22 17.0096 22H15.9616C15.903 22 15.8523 21.9787 15.8096 21.936C15.767 21.8934 15.7456 21.8427 15.7456 21.784V16.616C15.7456 16.5574 15.767 16.5067 15.8096 16.464C15.8523 16.4214 15.903 16.4 15.9616 16.4H19.6176Z" fill="#FF2D5F"/>
</svg>
