<svg width="24" height="24" viewBox="0 0 24 24" fill="none" xmlns="http://www.w3.org/2000/svg">
<path d="M12 2.24988C10.0716 2.24988 8.18657 2.82171 6.58319 3.89305C4.97982 4.96439 3.73013 6.48714 2.99218 8.26871C2.25422 10.0503 2.06114 12.0107 2.43735 13.902C2.81355 15.7933 3.74215 17.5306 5.10571 18.8942C6.46928 20.2577 8.20656 21.1863 10.0979 21.5625C11.9892 21.9387 13.9496 21.7457 15.7312 21.0077C17.5127 20.2698 19.0355 19.0201 20.1068 17.4167C21.1782 15.8133 21.75 13.9282 21.75 11.9999C21.747 9.41493 20.7188 6.93672 18.891 5.10889C17.0632 3.28105 14.5849 2.25287 12 2.24988ZM15.75 12.7499H12.75V15.7499C12.75 15.9488 12.671 16.1396 12.5303 16.2802C12.3897 16.4209 12.1989 16.4999 12 16.4999C11.8011 16.4999 11.6103 16.4209 11.4697 16.2802C11.329 16.1396 11.25 15.9488 11.25 15.7499V12.7499H8.25C8.05109 12.7499 7.86033 12.6709 7.71967 12.5302C7.57902 12.3896 7.5 12.1988 7.5 11.9999C7.5 11.801 7.57902 11.6102 7.71967 11.4695C7.86033 11.3289 8.05109 11.2499 8.25 11.2499H11.25V8.24988C11.25 8.05097 11.329 7.8602 11.4697 7.71955C11.6103 7.5789 11.8011 7.49988 12 7.49988C12.1989 7.49988 12.3897 7.5789 12.5303 7.71955C12.671 7.8602 12.75 8.05097 12.75 8.24988V11.2499H15.75C15.9489 11.2499 16.1397 11.3289 16.2803 11.4695C16.421 11.6102 16.5 11.801 16.5 11.9999C16.5 12.1988 16.421 12.3896 16.2803 12.5302C16.1397 12.6709 15.9489 12.7499 15.75 12.7499Z" fill="#252525"/>
</svg>
